<svg xmlns="http://www.w3.org/2000/svg" xmlns:xlink="http://www.w3.org/1999/xlink" viewBox="0 0 48 60" version="1.1" x="0px" y="0px"><path d="M24,38 C31.7319865,38 38,31.7319865 38,24 C38,16.2680135 31.7319865,10 24,10 C16.2680135,10 10,16.2680135 10,24 C10,31.7319865 16.2680135,38 24,38 Z M24,42 C14.0588745,42 6,33.9411255 6,24 C6,14.0588745 14.0588745,6 24,6 C33.9411255,6 42,14.0588745 42,24 C42,33.9411255 33.9411255,42 24,42 Z" fill="#000000" fill-rule="nonzero"/><rect fill="#000000" x="22" y="16" width="4" height="16"/><rect fill="#000000" transform="translate(24.000000, 24.000000) rotate(90.000000) translate(-24.000000, -24.000000) " x="22" y="16" width="4" height="16"/><text x="0" y="63" fill="#000000" font-size="5px" font-weight="bold" font-family="'Helvetica Neue', Helvetica, Arial-Unicode, Arial, Sans-serif">Created by Kevin Eichhorn</text><text x="0" y="68" fill="#000000" font-size="5px" font-weight="bold" font-family="'Helvetica Neue', Helvetica, Arial-Unicode, Arial, Sans-serif">from the Noun Project</text></svg>