<svg xmlns="http://www.w3.org/2000/svg" xmlns:xlink="http://www.w3.org/1999/xlink" version="1.1" x="0px" y="0px" viewBox="0 0 48 60" enable-background="new 0 0 48 48" xml:space="preserve"><path d="M41.795,22.888c0.055,0.047,0.115,0.088,0.17,0.137v-4.903c0-3.317-2.68-6.003-5.998-6.003h-16.88l-1.389-2.299   C17.051,8.749,15.722,8,14.473,8H7.996C4.684,8,2,10.682,2,13.994v19.889c0,3.313,2.683,5.994,6.003,5.994h16.944   c-0.035-0.04-0.064-0.085-0.099-0.125C27.05,42.348,30.33,44,34,44c6.627,0,12-5.373,12-12C46,28.351,44.365,25.088,41.795,22.888z    M22,32c0,1.509,0.291,2.946,0.799,4.277c-0.051-0.135-0.112-0.264-0.159-0.4H8.003C6.891,35.877,6,34.986,6,33.883V13.994   C6,12.892,6.893,12,7.996,12h6.347l1.389,2.299c0.648,1.074,1.977,1.819,3.23,1.819h17.005c1.107,0,1.998,0.893,1.998,2.003v2.549   c0.12,0.042,0.234,0.098,0.354,0.144C36.977,20.295,35.524,20,34,20C27.373,20,22,25.373,22,32z M34,40c-4.418,0-8-3.582-8-8   s3.582-8,8-8s8,3.582,8,8S38.418,40,34,40z"/><polygon points="32,26 32,38 36,38 36,26 "/><polygon points="40.06,30 28.06,30 28.06,34 40.06,34 "/><text x="0" y="63" fill="#000000" font-size="5px" font-weight="bold" font-family="'Helvetica Neue', Helvetica, Arial-Unicode, Arial, Sans-serif">Created by Kevin Eichhorn</text><text x="0" y="68" fill="#000000" font-size="5px" font-weight="bold" font-family="'Helvetica Neue', Helvetica, Arial-Unicode, Arial, Sans-serif">from the Noun Project</text></svg>