<svg xmlns="http://www.w3.org/2000/svg" xmlns:xlink="http://www.w3.org/1999/xlink" viewBox="0 0 48 60" version="1.1" x="0px" y="0px"><path d="M25.5296838,39.2816438 L25.5296838,3.81117332 C25.5296838,3.80825237 24.4871831,3.80625748 22.4021816,3.80518865 C22.400567,3.80518865 22.3997537,15.6306737 22.3997415,39.2816438 L23.9647126,41.368272 L25.5296838,39.2816438 Z M18.3997415,3.81117332 C18.3997415,1.59872908 20.1879593,-0.194811348 22.4021816,-0.194811348 L25.5272437,-0.194811348 C27.7377303,-0.194811348 29.5296838,1.59816162 29.5296838,3.81117332 L29.5296838,40.6149771 L23.9647126,48.0349387 L18.3997415,40.6149771 L18.3997415,3.81117332 Z" fill="#000000" fill-rule="nonzero" transform="translate(23.964713, 23.920064) rotate(-315.000000) translate(-23.964713, -23.920064) "/><polygon fill="#000000" fill-rule="nonzero" transform="translate(16.041334, 31.935346) rotate(-315.000000) translate(-16.041334, -31.935346) " points="12.2043236 33.9353456 19.8783453 33.9353456 19.8783453 29.9353456 12.2043236 29.9353456"/><text x="0" y="63" fill="#000000" font-size="5px" font-weight="bold" font-family="'Helvetica Neue', Helvetica, Arial-Unicode, Arial, Sans-serif">Created by Kevin Eichhorn</text><text x="0" y="68" fill="#000000" font-size="5px" font-weight="bold" font-family="'Helvetica Neue', Helvetica, Arial-Unicode, Arial, Sans-serif">from the Noun Project</text></svg>